Coordinates
version=1
nRows=13
nColumns=40
inDegrees=yes

Units are S.I. units (second, meters, Newtons, ...)
Angles are in degrees.

endheader
time	pelvis_tilt	pelvis_list	pelvis_rotation	pelvis_tx	pelvis_ty	pelvis_tz	hip_flexion_r	hip_adduction_r	hip_rotation_r	knee_angle_r	knee_angle_r_beta	ankle_angle_r	subtalar_angle_r	mtp_angle_r	hip_flexion_l	hip_adduction_l	hip_rotation_l	knee_angle_l	knee_angle_l_beta	ankle_angle_l	subtalar_angle_l	mtp_angle_l	lumbar_extension	lumbar_bending	lumbar_rotation	arm_flex_r	arm_add_r	arm_rot_r	elbow_flex_r	pro_sup_r	wrist_flex_r	wrist_dev_r	arm_flex_l	arm_add_l	arm_rot_l	elbow_flex_l	pro_sup_l	wrist_flex_l	wrist_dev_l
     51.52000000	     -2.81440237	     -4.01883599	      3.59132792	      1.07942252	      0.93327008	      0.48799575	     10.74845373	      2.40837183	    -17.75073674	     16.72900025	     16.72900025	     10.97684164	      1.44607164	     -3.71828614	     27.81451132	    -12.83289434	     -0.85247308	     55.38150474	     55.38150474	     10.82109049	    -17.13764793	      9.90451841	    -10.23360705	      5.11919330	      1.83130662	     19.12730345	    -19.68589963	     -0.45341759	     56.18114523	     45.74572304	      0.00000000	      0.00000000	      7.67603042	     -8.61536164	    -10.11363316	     38.05669970	     45.81764246	      0.00000000	      0.00000000
     51.53307143	     -2.97041613	     -3.91583128	      3.99669216	      1.07817538	      0.93368503	      0.48825126	     10.30485717	      2.43388008	    -17.87435709	     16.12890484	     16.12890484	     10.95461274	      1.23144664	     -3.63070350	     28.57950719	    -12.47484452	     -0.83586866	     52.35666671	     52.35666671	     10.95124726	    -16.91246101	      9.74106969	    -10.28846547	      5.07125285	      1.89512437	     20.67043067	    -19.71792361	     -0.50931380	     56.88974757	     45.72653120	      0.00000000	      0.00000000	      6.88519027	     -8.39118309	     -9.91849008	     37.24849441	     45.79109080	      0.00000000	      0.00000000
     51.54614286	     -3.16283469	     -3.88237475	      4.38908088	      1.07693685	      0.93397035	      0.48852057	      9.86523640	      2.54749832	    -18.01567259	     15.43149195	     15.43149195	     10.81331344	      1.05418080	     -3.78549221	     29.13540752	    -12.17116446	     -0.87629613	     48.89046984	     48.89046984	     10.49032545	    -16.67142066	      8.35222140	    -10.26402525	      5.12738353	      1.86589077	     22.42964106	    -19.74776302	     -0.22741797	     57.27709413	     45.70038929	      0.00000000	      0.00000000	      6.29141882	     -8.24238542	     -9.34667570	     35.62140648	     45.73565598	      0.00000000	      0.00000000
     51.55921429	     -3.31787172	     -3.72448158	      4.74164590	      1.07571684	      0.93426433	      0.48867913	      9.50254880	      2.47761808	    -18.15208236	     14.99776203	     14.99776203	     10.83964633	      0.88404796	     -3.81789155	     29.42054961	    -11.68798445	     -0.98512827	     45.17639827	     45.17639827	     10.44270502	    -16.11296492	      8.29531762	    -10.31919015	      5.00222274	      2.11641615	     23.81462186	    -19.91678900	     -0.25924506	     57.77805080	     45.68839700	      0.00000000	      0.00000000	      5.58814171	     -8.01586068	     -9.12018027	     34.91141455	     45.70435929	      0.00000000	      0.00000000
     51.57228571	     -3.53451500	     -3.65195034	      5.08680786	      1.07448913	      0.93431900	      0.48874559	      9.20961301	      2.48934546	    -18.27894035	     14.54688823	     14.54688823	     10.83384339	      0.77395124	     -3.85674568	     29.67566300	    -11.24079890	     -1.03895254	     41.35207638	     41.35207638	     10.38354332	    -15.29611255	      8.30341985	    -10.29543031	      4.98333326	      2.28218382	     25.21715891	    -20.03005457	     -0.27977008	     58.28954890	     45.67632542	      0.00000000	      0.00000000	      4.86466127	     -7.82072467	     -8.88471018	     34.10880451	     45.66929819	      0.00000000	      0.00000000
     51.58535714	     -3.73291778	     -3.59141932	      5.41405659	      1.07328002	      0.93430524	      0.48871056	      8.90981884	      2.50404051	    -18.42305680	     14.11527095	     14.11527095	     10.83676640	      0.66379235	     -3.92774333	     29.78293105	    -10.77697568	     -1.08267903	     37.42008622	     37.42008622	     10.27185382	    -14.22475120	      8.32045204	    -10.27449214	      4.99073938	      2.39902088	     26.60195794	    -20.10283881	     -0.27496697	     58.77823906	     45.66404159	      0.00000000	      0.00000000	      4.15779393	     -7.63753584	     -8.63348757	     33.23686198	     45.63163357	      0.00000000	      0.00000000
     51.59842857	     -3.92705059	     -3.57421035	      5.72508611	      1.07210404	      0.93416947	      0.48857474	      8.63164916	      2.55102342	    -18.58518628	     13.72083359	     13.72083359	     10.84721605	      0.57299248	     -4.04721447	     29.78992710	    -10.33216144	     -1.12217532	     33.45962657	     33.45962657	     10.15250754	    -12.91919107	      8.27633984	    -10.25816886	      5.01875944	      2.47754595	     27.93725364	    -20.12469256	     -0.23975138	     59.23264661	     45.65130247	      0.00000000	      0.00000000	      3.48304530	     -7.48482737	     -8.36909082	     32.30669348	     45.59279291	      0.00000000	      0.00000000
     51.61150000	     -4.10811953	     -3.63048612	      6.05480268	      1.07093019	      0.93389811	      0.48829074	      8.29955054	      2.68130001	    -18.81164272	     13.21848805	     13.21848805	     10.66744538	      0.52509605	     -4.65831508	     29.69853805	     -9.94436987	     -1.17488440	     29.42602181	     29.42602181	      9.19177201	    -11.57249512	      6.30837016	    -10.19600195	      5.16181867	      2.43974626	     29.45351846	    -20.10340499	      0.20867763	     59.17704484	     45.63120270	      0.00000000	      0.00000000	      3.18209424	     -7.34080147	     -7.49768030	     30.24950035	     45.50690920	      0.00000000	      0.00000000
     51.62457143	     -4.38790484	     -3.63650788	      6.32104487	      1.06968692	      0.93346011	      0.48793759	      8.23151893	      2.69310858	    -18.91362908	     13.04527007	     13.04527007	     10.76251152	      0.40360387	     -4.72761613	     29.75184521	     -9.47698546	     -1.22094105	     25.77767848	     25.77767848	      9.08726206	     -9.90999384	      6.74974580	    -10.06660293	      5.17986564	      2.66653059	     30.39870216	    -20.18180851	      0.10393245	     59.67951434	     45.62119242	      0.00000000	      0.00000000	      2.44600149	     -7.18384886	     -7.44012326	     29.91707661	     45.49210067	      0.00000000	      0.00000000
     51.63764286	     -4.53130358	     -3.66084942	      6.59024690	      1.06856232	      0.93316229	      0.48746192	      7.97680676	      2.73917235	    -19.07140495	     12.81318479	     12.81318479	     10.87794854	      0.36081136	     -4.81668624	     29.66808350	     -9.05616682	     -1.34439140	     22.42873880	     22.42873880	      8.90653927	     -8.08816482	      7.09225407	    -10.09645193	      5.23724720	      2.70933069	     31.41000904	    -20.07399047	      0.00304448	     60.27583791	     45.60739105	      0.00000000	      0.00000000	      1.69527596	     -7.09500739	     -7.35974127	     29.43704868	     45.47670798	      0.00000000	      0.00000000
     51.65071429	     -4.74188701	     -3.72466552	      6.86884407	      1.06737557	      0.93274775	      0.48682741	      7.81532003	      2.80071210	    -19.22741362	     12.60457265	     12.60457265	     10.97604729	      0.34826483	     -4.89405230	     29.72280828	     -8.65344498	     -1.47611468	     19.50929157	     19.50929157	      8.62117505	     -6.33403946	      7.45657564	    -10.02184354	      5.34219809	      2.74865480	     32.27145137	    -19.95373974	     -0.09121345	     60.77591172	     45.59631140	      0.00000000	      0.00000000	      1.01369120	     -6.97075964	     -7.29280791	     28.99314996	     45.46320843	      0.00000000	      0.00000000
     51.66378571	     -4.92559102	     -3.81334001	      7.12273092	      1.06624562	      0.93229473	      0.48618036	      7.63198811	      2.89186230	    -19.40746671	     12.41803361	     12.41803361	     11.11441963	      0.33803697	     -4.96603374	     29.83616433	     -8.29167058	     -1.61493629	     17.15577423	     17.15577423	      8.35334942	     -4.81998689	      7.75754305	     -9.95792097	      5.39147712	      2.79430658	     33.04839176	    -19.76928219	     -0.18112447	     61.23509801	     45.58628444	      0.00000000	      0.00000000	      0.39714837	     -6.85383229	     -7.23658191	     28.58115916	     45.45162095	      0.00000000	      0.00000000
     51.67685714	     -5.02281443	     -3.83949424	      7.37183097	      1.06524963	      0.93202124	      0.48538985	      7.32104537	      2.92221122	    -19.59854863	     12.20501377	     12.20501377	     11.26729798	      0.38262012	     -5.02187579	     29.88787620	     -7.89999360	     -1.89402148	     15.35980102	     15.35980102	      8.01836827	     -3.52556114	      7.91941582	     -9.98455744	      5.39854467	      2.72860761	     33.80595791	    -19.48575819	     -0.31899267	     61.70527080	     45.57693539	      0.00000000	      0.00000000	     -0.21972551	     -6.79892528	     -7.17310550	     28.10514792	     45.44266511	      0.00000000	      0.00000000
